# Blender 3.3.1
# www.blender.org
mtllib billboard.mtl
o Cylinder.001
v 3.154477 2.132182 -0.431515
v 3.154477 8.132181 -0.431515
v 3.213004 2.132182 -0.425751
v 3.213004 8.132181 -0.425751
v 3.269282 2.132182 -0.408679
v 3.269282 8.132181 -0.408679
v 3.321148 2.132182 -0.380956
v 3.321148 8.132181 -0.380956
v 3.366609 2.132182 -0.343647
v 3.366609 8.132181 -0.343647
v 3.403918 2.132182 -0.298186
v 3.403918 8.132181 -0.298186
v 3.431641 2.132182 -0.246320
v 3.431641 8.132181 -0.246320
v 3.448713 2.132182 -0.190042
v 3.448713 8.132181 -0.190042
v 3.454477 2.132182 -0.131515
v 3.454477 8.132181 -0.131515
v 3.448713 2.132182 -0.072988
v 3.448713 8.132181 -0.072988
v 3.431641 2.132182 -0.016710
v 3.431641 8.132181 -0.016710
v 3.403918 2.132182 0.035156
v 3.403918 8.132181 0.035156
v 3.366609 2.132182 0.080617
v 3.366609 8.132181 0.080617
v 3.321148 2.132182 0.117926
v 3.321148 8.132181 0.117926
v 3.269282 2.132182 0.145648
v 3.269282 8.132181 0.145648
v 3.213004 2.132182 0.162720
v 3.213004 8.132181 0.162720
v 3.154477 2.132182 0.168485
v 3.154477 8.132181 0.168485
v 3.095950 2.132182 0.162720
v 3.095950 8.132181 0.162720
v 3.039672 2.132182 0.145648
v 3.039672 8.132181 0.145648
v 2.987806 2.132182 0.117926
v 2.987806 8.132181 0.117926
v 2.942345 2.132182 0.080617
v 2.942345 8.132181 0.080617
v 2.905036 2.132182 0.035156
v 2.905036 8.132181 0.035156
v 2.877313 2.132182 -0.016710
v 2.877313 8.132181 -0.016710
v 2.860241 2.132182 -0.072988
v 2.860241 8.132181 -0.072988
v 2.854477 2.132182 -0.131515
v 2.854477 8.132181 -0.131515
v 2.860241 2.132182 -0.190042
v 2.860241 8.132181 -0.190042
v 2.877313 2.132182 -0.246320
v 2.877313 8.132181 -0.246320
v 2.905036 2.132182 -0.298186
v 2.905036 8.132181 -0.298186
v 2.942345 2.132182 -0.343647
v 2.942345 8.132181 -0.343647
v 2.987806 2.132182 -0.380956
v 2.987806 8.132181 -0.380956
v 3.039672 2.132182 -0.408679
v 3.039672 8.132181 -0.408679
v 3.095950 2.132182 -0.425751
v 3.095950 8.132181 -0.425751
v -2.842721 2.143084 -0.431515
v -2.842721 8.143084 -0.431515
v -2.784193 2.143084 -0.425751
v -2.784193 8.143084 -0.425751
v -2.727916 2.143084 -0.408679
v -2.727916 8.143084 -0.408679
v -2.676049 2.143084 -0.380956
v -2.676049 8.143084 -0.380956
v -2.630588 2.143084 -0.343647
v -2.630588 8.143084 -0.343647
v -2.593279 2.143084 -0.298186
v -2.593279 8.143084 -0.298186
v -2.565557 2.143084 -0.246320
v -2.565557 8.143084 -0.246320
v -2.548485 2.143084 -0.190042
v -2.548485 8.143084 -0.190042
v -2.542720 2.143084 -0.131515
v -2.542720 8.143084 -0.131515
v -2.548485 2.143084 -0.072988
v -2.548485 8.143084 -0.072988
v -2.565557 2.143084 -0.016710
v -2.565557 8.143084 -0.016710
v -2.593279 2.143084 0.035156
v -2.593279 8.143084 0.035156
v -2.630588 2.143084 0.080617
v -2.630588 8.143084 0.080617
v -2.676049 2.143084 0.117926
v -2.676049 8.143084 0.117926
v -2.727916 2.143084 0.145648
v -2.727916 8.143084 0.145648
v -2.784193 2.143084 0.162720
v -2.784193 8.143084 0.162720
v -2.842721 2.143084 0.168485
v -2.842721 8.143084 0.168485
v -2.901248 2.143084 0.162720
v -2.901248 8.143084 0.162720
v -2.957525 2.143084 0.145648
v -2.957525 8.143084 0.145648
v -3.009392 2.143084 0.117926
v -3.009392 8.143084 0.117926
v -3.054853 2.143084 0.080617
v -3.054853 8.143084 0.080617
v -3.092162 2.143084 0.035156
v -3.092162 8.143084 0.035156
v -3.119884 2.143084 -0.016710
v -3.119884 8.143084 -0.016710
v -3.136956 2.143084 -0.072988
v -3.136956 8.143084 -0.072988
v -3.142721 2.143084 -0.131515
v -3.142721 8.143084 -0.131515
v -3.136956 2.143084 -0.190042
v -3.136956 8.143084 -0.190042
v -3.119884 2.143084 -0.246320
v -3.119884 8.143084 -0.246320
v -3.092162 2.143084 -0.298186
v -3.092162 8.143084 -0.298186
v -3.054853 2.143084 -0.343647
v -3.054853 8.143084 -0.343647
v -3.009392 2.143084 -0.380956
v -3.009392 8.143084 -0.380956
v -2.957525 2.143084 -0.408679
v -2.957525 8.143084 -0.408679
v -2.901248 2.143084 -0.425751
v -2.901248 8.143084 -0.425751
v -5.355184 8.387260 -0.092852
v -5.355184 13.771389 -0.092852
v -5.971053 8.079325 -0.564438
v -5.971053 14.079325 -0.564438
v 5.413077 8.387260 -0.092852
v 5.413077 13.771389 -0.092852
v 6.028947 8.079325 -0.564438
v 6.028947 14.079325 -0.564438
v -5.971053 8.079325 0.235562
v -5.971053 14.079325 0.235562
v 6.028947 14.079325 0.235562
v 6.028947 8.079325 0.235562
vn 0.0980 -0.0000 -0.9952
vn 0.2903 -0.0000 -0.9569
vn 0.4714 -0.0000 -0.8819
vn 0.6344 -0.0000 -0.7730
vn 0.7730 -0.0000 -0.6344
vn 0.8819 -0.0000 -0.4714
vn 0.9569 -0.0000 -0.2903
vn 0.9952 -0.0000 -0.0980
vn 0.9952 -0.0000 0.0980
vn 0.9569 -0.0000 0.2903
vn 0.8819 -0.0000 0.4714
vn 0.7730 -0.0000 0.6344
vn 0.6344 -0.0000 0.7730
vn 0.4714 -0.0000 0.8819
vn 0.2903 -0.0000 0.9569
vn 0.0980 -0.0000 0.9952
vn -0.0980 -0.0000 0.9952
vn -0.2903 -0.0000 0.9569
vn -0.4714 -0.0000 0.8819
vn -0.6344 -0.0000 0.7730
vn -0.7730 -0.0000 0.6344
vn -0.8819 -0.0000 0.4714
vn -0.9569 -0.0000 0.2903
vn -0.9952 -0.0000 0.0980
vn -0.9952 -0.0000 -0.0980
vn -0.9569 -0.0000 -0.2903
vn -0.8819 -0.0000 -0.4714
vn -0.7730 -0.0000 -0.6344
vn -0.6344 -0.0000 -0.7730
vn -0.4714 -0.0000 -0.8819
vn -0.0000 1.0000 -0.0000
vn -0.2903 -0.0000 -0.9569
vn -0.0980 -0.0000 -0.9952
vn -0.0000 -1.0000 -0.0000
vn -1.0000 -0.0000 -0.0000
vn -0.0000 -0.0000 -1.0000
vn 1.0000 -0.0000 -0.0000
vn -0.0000 -0.0000 1.0000
vn 0.4705 -0.0000 0.8824
vn -0.4705 -0.0000 0.8824
vn -0.0000 0.7295 0.6840
vn -0.0000 -0.7295 0.6840
vt 0.357195 0.012545
vt 0.036795 0.012545
vt 0.490084 0.162864
vt 0.357195 0.172745
vt 0.511328 0.936387
vt 0.036795 0.172745
vt 0.347182 0.012545
vt 0.501928 0.161698
vt 0.347182 0.172745
vt 0.523027 0.935235
vt 0.337170 0.012545
vt 0.513316 0.158243
vt 0.337170 0.172745
vt 0.534277 0.931822
vt 0.327157 0.012545
vt 0.523811 0.152633
vt 0.327157 0.172745
vt 0.544644 0.926281
vt 0.317145 0.012545
vt 0.533010 0.145084
vt 0.317145 0.172745
vt 0.553732 0.918823
vt 0.307132 0.012545
vt 0.540560 0.135884
vt 0.307132 0.172745
vt 0.561190 0.909735
vt 0.297120 0.012545
vt 0.546170 0.125389
vt 0.297120 0.172745
vt 0.566731 0.899368
vt 0.287107 0.012545
vt 0.549624 0.114001
vt 0.287107 0.172745
vt 0.570144 0.888118
vt 0.277095 0.012545
vt 0.550791 0.102158
vt 0.277095 0.172745
vt 0.571296 0.876418
vt 0.267082 0.012545
vt 0.549624 0.090314
vt 0.267082 0.172745
vt 0.570144 0.864719
vt 0.257070 0.012545
vt 0.546170 0.078926
vt 0.257070 0.172745
vt 0.566731 0.853469
vt 0.247057 0.012545
vt 0.540560 0.068431
vt 0.247057 0.172745
vt 0.561190 0.843102
vt 0.237045 0.012545
vt 0.533010 0.059232
vt 0.237045 0.172745
vt 0.553732 0.834014
vt 0.227032 0.012545
vt 0.523811 0.051682
vt 0.227032 0.172745
vt 0.544644 0.826556
vt 0.217020 0.012545
vt 0.513316 0.046072
vt 0.217020 0.172745
vt 0.534277 0.821015
vt 0.207007 0.012545
vt 0.501928 0.042618
vt 0.207007 0.172745
vt 0.523027 0.817602
vt 0.196995 0.012545
vt 0.490084 0.041451
vt 0.196995 0.172745
vt 0.511328 0.816450
vt 0.186982 0.012545
vt 0.478241 0.042618
vt 0.186982 0.172745
vt 0.499628 0.817602
vt 0.176970 0.012545
vt 0.466853 0.046072
vt 0.176970 0.172745
vt 0.488378 0.821015
vt 0.166957 0.012545
vt 0.456358 0.051682
vt 0.166957 0.172745
vt 0.478011 0.826556
vt 0.156945 0.012545
vt 0.447158 0.059232
vt 0.156945 0.172745
vt 0.468923 0.834014
vt 0.146932 0.012545
vt 0.439609 0.068431
vt 0.146932 0.172745
vt 0.461465 0.843102
vt 0.136920 0.012545
vt 0.433999 0.078926
vt 0.136920 0.172745
vt 0.455924 0.853469
vt 0.126907 0.012545
vt 0.430544 0.090314
vt 0.126907 0.172745
vt 0.452511 0.864719
vt 0.116895 0.012545
vt 0.429378 0.102158
vt 0.116895 0.172745
vt 0.451359 0.876418
vt 0.106882 0.012545
vt 0.430544 0.114001
vt 0.106882 0.172745
vt 0.452511 0.888118
vt 0.096870 0.012545
vt 0.433999 0.125389
vt 0.096870 0.172745
vt 0.455924 0.899368
vt 0.086857 0.012545
vt 0.439609 0.135884
vt 0.086857 0.172745
vt 0.461465 0.909735
vt 0.076845 0.012545
vt 0.447158 0.145084
vt 0.076845 0.172745
vt 0.468923 0.918823
vt 0.066832 0.012545
vt 0.456358 0.152633
vt 0.066832 0.172745
vt 0.478011 0.926281
vt 0.056820 0.012545
vt 0.466853 0.158243
vt 0.488378 0.931822
vt 0.056820 0.172745
vt 0.046807 0.012545
vt 0.478241 0.161698
vt 0.499628 0.935235
vt 0.046807 0.172745
vt 0.371736 0.826024
vt 0.045050 0.826024
vt 0.663106 0.159203
vt 0.371736 0.989367
vt 0.670314 0.930078
vt 0.045050 0.989367
vt 0.361527 0.826024
vt 0.674676 0.158063
vt 0.361527 0.989367
vt 0.682036 0.928923
vt 0.351318 0.826024
vt 0.685801 0.154688
vt 0.351318 0.989367
vt 0.693307 0.925504
vt 0.341109 0.826024
vt 0.696054 0.149208
vt 0.341109 0.989367
vt 0.703694 0.919952
vt 0.330900 0.826024
vt 0.705041 0.141832
vt 0.330900 0.989367
vt 0.712799 0.912480
vt 0.320691 0.826024
vt 0.712416 0.132845
vt 0.320691 0.989367
vt 0.720271 0.903375
vt 0.310482 0.826024
vt 0.717897 0.122592
vt 0.310482 0.989367
vt 0.725823 0.892988
vt 0.300273 0.826024
vt 0.721271 0.111467
vt 0.300273 0.989367
vt 0.729243 0.881716
vt 0.290064 0.826024
vt 0.722411 0.099897
vt 0.290064 0.989367
vt 0.730397 0.869995
vt 0.279856 0.826024
vt 0.721271 0.088327
vt 0.279856 0.989367
vt 0.729243 0.858273
vt 0.269647 0.826024
vt 0.717897 0.077202
vt 0.269647 0.989367
vt 0.725823 0.847002
vt 0.259438 0.826024
vt 0.712416 0.066949
vt 0.259438 0.989367
vt 0.720271 0.836614
vt 0.249229 0.826024
vt 0.705041 0.057962
vt 0.249229 0.989367
vt 0.712799 0.827510
vt 0.239020 0.826024
vt 0.696054 0.050587
vt 0.239020 0.989367
vt 0.703694 0.820038
vt 0.228811 0.826024
vt 0.685801 0.045106
vt 0.228811 0.989367
vt 0.693307 0.814485
vt 0.218602 0.826024
vt 0.674676 0.041732
vt 0.218602 0.989367
vt 0.682036 0.811066
vt 0.208393 0.826024
vt 0.663106 0.040592
vt 0.208393 0.989367
vt 0.670314 0.809912
vt 0.198184 0.826024
vt 0.651536 0.041732
vt 0.198184 0.989367
vt 0.658592 0.811066
vt 0.187975 0.826024
vt 0.640411 0.045106
vt 0.187975 0.989367
vt 0.647321 0.814485
vt 0.177766 0.826024
vt 0.630157 0.050587
vt 0.177766 0.989367
vt 0.636934 0.820038
vt 0.167557 0.826024
vt 0.621171 0.057962
vt 0.167557 0.989367
vt 0.627829 0.827510
vt 0.157348 0.826024
vt 0.613795 0.066949
vt 0.157348 0.989367
vt 0.620357 0.836614
vt 0.147139 0.826024
vt 0.608315 0.077202
vt 0.147139 0.989367
vt 0.614805 0.847002
vt 0.136931 0.826024
vt 0.604940 0.088327
vt 0.136931 0.989367
vt 0.611386 0.858273
vt 0.126722 0.826024
vt 0.603800 0.099897
vt 0.126722 0.989367
vt 0.610231 0.869995
vt 0.116513 0.826024
vt 0.604940 0.111467
vt 0.116513 0.989367
vt 0.611386 0.881716
vt 0.106304 0.826024
vt 0.608315 0.122592
vt 0.106304 0.989367
vt 0.614805 0.892988
vt 0.096095 0.826024
vt 0.613795 0.132845
vt 0.096095 0.989367
vt 0.620357 0.903375
vt 0.085886 0.826024
vt 0.621171 0.141832
vt 0.085886 0.989367
vt 0.627829 0.912480
vt 0.075677 0.826024
vt 0.630157 0.149208
vt 0.075677 0.989367
vt 0.636934 0.919952
vt 0.065468 0.826024
vt 0.640411 0.154688
vt 0.647321 0.925504
vt 0.065468 0.989367
vt 0.055259 0.826024
vt 0.651536 0.158063
vt 0.658592 0.928923
vt 0.055259 0.989367
vt 0.058854 0.754844
vt 0.054605 0.777142
vt 0.776422 0.198669
vt 0.331266 0.753606
vt 0.412044 0.777561
vt 0.698383 0.501042
vt 0.414304 0.756817
vt 0.423985 0.282118
vt 0.744325 0.500896
vt 0.418909 0.313819
vt 0.345516 0.369956
vt 0.056805 0.303802
vt 0.418643 0.206125
vt 0.329217 0.302565
vt 0.061229 0.201857
vt 0.769722 0.766252
vt 0.671975 0.759496
vt 0.701336 0.752687
vt 0.050902 0.283303
vt 0.676580 0.316497
vt 0.700619 0.526802
vt 0.357702 0.743846
vt 0.697671 0.276989
vt 0.423864 0.243903
vt 0.013270 0.799222
vt 0.816659 0.219939
vt 0.743613 0.276843
vt 0.385500 0.368653
vt 0.411595 0.799689
vt 0.740920 0.526674
vt 0.397686 0.742543
vt 0.019658 0.223491
vt 0.810185 0.787087
vt 0.741638 0.752559
vt 0.050780 0.245088
vt 0.417955 0.228247
s 0
f 1/1/1 2/4/1 4/9/1 3/7/1
f 3/7/2 4/9/2 6/13/2 5/11/2
f 5/11/3 6/13/3 8/17/3 7/15/3
f 7/15/4 8/17/4 10/21/4 9/19/4
f 9/19/5 10/21/5 12/25/5 11/23/5
f 11/23/6 12/25/6 14/29/6 13/27/6
f 13/27/7 14/29/7 16/33/7 15/31/7
f 15/31/8 16/33/8 18/37/8 17/35/8
f 17/35/9 18/37/9 20/41/9 19/39/9
f 19/39/10 20/41/10 22/45/10 21/43/10
f 21/43/11 22/45/11 24/49/11 23/47/11
f 23/47/12 24/49/12 26/53/12 25/51/12
f 25/51/13 26/53/13 28/57/13 27/55/13
f 27/55/14 28/57/14 30/61/14 29/59/14
f 29/59/15 30/61/15 32/65/15 31/63/15
f 31/63/16 32/65/16 34/69/16 33/67/16
f 33/67/17 34/69/17 36/73/17 35/71/17
f 35/71/18 36/73/18 38/77/18 37/75/18
f 37/75/19 38/77/19 40/81/19 39/79/19
f 39/79/20 40/81/20 42/85/20 41/83/20
f 41/83/21 42/85/21 44/89/21 43/87/21
f 43/87/22 44/89/22 46/93/22 45/91/22
f 45/91/23 46/93/23 48/97/23 47/95/23
f 47/95/24 48/97/24 50/101/24 49/99/24
f 49/99/25 50/101/25 52/105/25 51/103/25
f 51/103/26 52/105/26 54/109/26 53/107/26
f 53/107/27 54/109/27 56/113/27 55/111/27
f 55/111/28 56/113/28 58/117/28 57/115/28
f 57/115/29 58/117/29 60/121/29 59/119/29
f 59/119/30 60/121/30 62/126/30 61/123/30
f 4/10/31 2/5/31 64/129/31 62/125/31 60/122/31 58/118/31 56/114/31 54/110/31 52/106/31 50/102/31 48/98/31 46/94/31 44/90/31 42/86/31 40/82/31 38/78/31 36/74/31 34/70/31 32/66/31 30/62/31 28/58/31 26/54/31 24/50/31 22/46/31 20/42/31 18/38/31 16/34/31 14/30/31 12/26/31 10/22/31 8/18/31 6/14/31
f 61/123/32 62/126/32 64/130/32 63/127/32
f 63/127/33 64/130/33 2/6/33 1/2/33
f 1/3/34 3/8/34 5/12/34 7/16/34 9/20/34 11/24/34 13/28/34 15/32/34 17/36/34 19/40/34 21/44/34 23/48/34 25/52/34 27/56/34 29/60/34 31/64/34 33/68/34 35/72/34 37/76/34 39/80/34 41/84/34 43/88/34 45/92/34 47/96/34 49/100/34 51/104/34 53/108/34 55/112/34 57/116/34 59/120/34 61/124/34 63/128/34
f 65/131/1 66/134/1 68/139/1 67/137/1
f 67/137/2 68/139/2 70/143/2 69/141/2
f 69/141/3 70/143/3 72/147/3 71/145/3
f 71/145/4 72/147/4 74/151/4 73/149/4
f 73/149/5 74/151/5 76/155/5 75/153/5
f 75/153/6 76/155/6 78/159/6 77/157/6
f 77/157/7 78/159/7 80/163/7 79/161/7
f 79/161/8 80/163/8 82/167/8 81/165/8
f 81/165/9 82/167/9 84/171/9 83/169/9
f 83/169/10 84/171/10 86/175/10 85/173/10
f 85/173/11 86/175/11 88/179/11 87/177/11
f 87/177/12 88/179/12 90/183/12 89/181/12
f 89/181/13 90/183/13 92/187/13 91/185/13
f 91/185/14 92/187/14 94/191/14 93/189/14
f 93/189/15 94/191/15 96/195/15 95/193/15
f 95/193/16 96/195/16 98/199/16 97/197/16
f 97/197/17 98/199/17 100/203/17 99/201/17
f 99/201/18 100/203/18 102/207/18 101/205/18
f 101/205/19 102/207/19 104/211/19 103/209/19
f 103/209/20 104/211/20 106/215/20 105/213/20
f 105/213/21 106/215/21 108/219/21 107/217/21
f 107/217/22 108/219/22 110/223/22 109/221/22
f 109/221/23 110/223/23 112/227/23 111/225/23
f 111/225/24 112/227/24 114/231/24 113/229/24
f 113/229/25 114/231/25 116/235/25 115/233/25
f 115/233/26 116/235/26 118/239/26 117/237/26
f 117/237/27 118/239/27 120/243/27 119/241/27
f 119/241/28 120/243/28 122/247/28 121/245/28
f 121/245/29 122/247/29 124/251/29 123/249/29
f 123/249/30 124/251/30 126/256/30 125/253/30
f 68/140/31 66/135/31 128/259/31 126/255/31 124/252/31 122/248/31 120/244/31 118/240/31 116/236/31 114/232/31 112/228/31 110/224/31 108/220/31 106/216/31 104/212/31 102/208/31 100/204/31 98/200/31 96/196/31 94/192/31 92/188/31 90/184/31 88/180/31 86/176/31 84/172/31 82/168/31 80/164/31 78/160/31 76/156/31 74/152/31 72/148/31 70/144/31
f 125/253/32 126/256/32 128/260/32 127/257/32
f 127/257/33 128/260/33 66/136/33 65/132/33
f 65/133/34 67/138/34 69/142/34 71/146/34 73/150/34 75/154/34 77/158/34 79/162/34 81/166/34 83/170/34 85/174/34 87/178/34 89/182/34 91/186/34 93/190/34 95/194/34 97/198/34 99/202/34 101/206/34 103/210/34 105/214/34 107/218/34 109/222/34 111/226/34 113/230/34 115/234/34 117/238/34 119/242/34 121/246/34 123/250/34 125/254/34 127/258/34
f 137/283/35 138/287/35 132/269/35 131/266/35
f 131/267/36 132/270/36 136/280/36 135/277/36
f 135/278/37 136/281/37 139/290/37 140/294/37
f 133/272/38 134/274/38 130/264/38 129/261/38
f 131/268/34 135/279/34 140/295/34 137/284/34
f 136/282/31 132/271/31 138/288/31 139/291/31
f 129/262/39 130/265/39 138/289/39 137/285/39
f 134/275/40 133/273/40 140/296/40 139/292/40
f 133/273/41 129/263/41 137/286/41 140/296/41
f 130/265/42 134/276/42 139/293/42 138/289/42
