# Blender v3.2.2 OBJ File: ''
# www.blender.org
mtllib plank.mtl
o Cube.001
v -0.119959 -0.483654 3.090859
v -0.084084 -0.175504 3.090859
v -0.119959 -0.483654 -2.755954
v -0.119959 -0.175504 -2.933937
v 1.000000 -0.483654 3.090859
v 0.938290 -0.175504 3.090859
v 1.000000 -0.483654 -2.933937
v 1.000000 -0.175504 -2.933937
v -0.040573 -0.462547 0.078461
v -0.119959 -0.175504 0.078461
v 1.000000 -0.483654 0.078461
v 0.943296 -0.175504 0.078461
v 0.440021 -0.483654 -2.933937
v 0.488450 -0.226928 -2.795687
v 0.440021 -0.483654 3.090859
v 0.684466 -0.175504 2.801401
v 0.440021 -0.175504 0.078461
v 0.440021 -0.483654 0.078461
v -0.119959 -0.431698 1.584660
v 1.000000 -0.175504 1.584660
v -0.005002 -0.175504 1.584660
v 0.867041 -0.483654 1.584660
v 0.440021 -0.152375 1.584660
v 0.440021 -0.483654 1.584660
v -0.074595 -0.175504 -1.427738
v 1.000000 -0.483654 -1.427738
v 0.004790 -0.483654 -1.427738
v 1.000000 -0.175504 -1.427738
v 0.440021 -0.483654 -1.427738
v 0.486265 -0.213696 -1.427738
vt 0.375000 0.187500
vt 0.625000 0.187500
vt 0.625000 0.250000
vt 0.375000 0.250000
vt 0.375000 0.375000
vt 0.625000 0.375000
vt 0.625000 0.500000
vt 0.375000 0.500000
vt 0.375000 0.687500
vt 0.625000 0.687500
vt 0.625000 0.750000
vt 0.375000 0.750000
vt 0.375000 0.875000
vt 0.625000 0.875000
vt 0.625000 1.000000
vt 0.375000 1.000000
vt 0.250000 0.687500
vt 0.250000 0.750000
vt 0.750000 0.687500
vt 0.875000 0.687500
vt 0.875000 0.750000
vt 0.750000 0.750000
vt 0.750000 0.562500
vt 0.875000 0.562500
vt 0.875000 0.625000
vt 0.750000 0.625000
vt 0.250000 0.562500
vt 0.375000 0.562500
vt 0.375000 0.625000
vt 0.250000 0.625000
vt 0.625000 0.562500
vt 0.625000 0.625000
vt 0.375000 0.062500
vt 0.625000 0.062500
vt 0.625000 0.125000
vt 0.375000 0.125000
vt 0.125000 0.562500
vt 0.125000 0.625000
vt 0.125000 0.687500
vt 0.125000 0.750000
vt 0.375000 0.000000
vt 0.625000 0.000000
vt 0.750000 0.500000
vt 0.125000 0.500000
vt 0.250000 0.500000
vt 0.875000 0.500000
vn -0.9921 -0.1106 0.0595
vn -0.1356 0.2465 -0.9596
vn 0.9931 -0.1148 -0.0235
vn 0.2002 0.3404 0.9187
vn 0.0000 -1.0000 0.0000
vn -0.0168 0.9998 0.0095
vn 0.0341 0.9994 -0.0116
vn 0.9956 0.0916 0.0187
vn -0.9978 0.0653 0.0111
vn -0.0230 -0.9997 0.0067
vn -0.0375 0.9992 -0.0140
vn 0.0260 0.9996 0.0067
vn -0.0463 -0.9988 -0.0172
vn -0.2946 0.4764 0.8284
vn -0.0369 -0.0670 -0.9971
vn -0.0700 -0.9975 0.0084
vn 0.0217 0.9997 -0.0081
vn -0.9659 0.2582 -0.0209
vn -0.0230 0.9997 -0.0068
vn 0.9921 -0.1228 0.0251
vn -0.0877 0.9961 -0.0047
vn 1.0000 0.0000 0.0000
vn 0.0771 0.9970 -0.0057
vn -0.9659 -0.2576 -0.0273
usemtl None
s off
f 27/1/1 25/2/1 4/3/1 3/4/1
f 13/5/2 14/6/2 8/7/2 7/8/2
f 22/9/3 20/10/3 6/11/3 5/12/3
f 15/13/4 16/14/4 2/15/4 1/16/4
f 24/17/5 22/9/5 5/12/5 15/18/5
f 23/19/6 21/20/6 2/21/6 16/22/6
f 30/23/7 25/24/7 10/25/7 17/26/7
f 29/27/5 26/28/5 11/29/5 18/30/5
f 26/28/8 28/31/8 12/32/8 11/29/8
f 19/33/9 21/34/9 10/35/9 9/36/9
f 27/37/10 29/27/10 18/30/10 9/38/10
f 28/31/11 30/23/11 17/26/11 12/32/11
f 20/10/12 23/19/12 16/22/12 6/11/12
f 19/39/13 24/17/13 15/18/13 1/40/13
f 5/12/14 6/11/14 16/14/14 15/13/14
f 3/4/15 4/3/15 14/6/15 13/5/15
f 9/38/16 18/30/16 24/17/16 19/39/16
f 12/32/17 17/26/17 23/19/17 20/10/17
f 1/41/18 2/42/18 21/34/18 19/33/18
f 17/26/19 10/25/19 21/20/19 23/19/19
f 18/30/5 11/29/5 22/9/5 24/17/5
f 11/29/20 12/32/20 20/10/20 22/9/20
f 8/7/21 14/43/21 30/23/21 28/31/21
f 3/44/5 13/45/5 29/27/5 27/37/5
f 7/8/22 8/7/22 28/31/22 26/28/22
f 13/45/5 7/8/5 26/28/5 29/27/5
f 14/43/23 4/46/23 25/24/23 30/23/23
f 9/36/24 10/35/24 25/2/24 27/1/24
