# Blender v3.2.2 OBJ File: ''
# www.blender.org
mtllib FINAL FINAL gas pump.mtl
o Cube.001
v 11.584955 0.000000 -16.877045
v 3.702218 5.873377 -17.752161
v 11.584955 0.000000 -17.752161
v 11.584955 6.750000 -17.752161
v 12.771159 0.000000 -16.877045
v 3.702218 6.750000 -17.752161
v 12.771159 0.000000 -17.752161
v 12.771159 6.750000 -17.752161
v 8.126185 5.873377 -12.418275
v 11.584955 5.873377 -17.752161
v 12.771159 5.873377 -17.752161
v 12.771159 5.873377 -16.877045
v 11.584955 5.873377 -5.089528
v 11.584955 6.750000 -5.089528
v 12.771159 6.750000 -5.089528
v 12.771159 5.873377 -5.089528
v 7.160988 5.873377 -12.418275
v 3.702218 5.873377 -5.089528
v 3.702218 6.750000 -5.089528
v 7.160988 5.873377 -10.337399
v 8.126185 5.873377 -10.337399
v 12.771159 5.873377 -5.878630
v 12.771159 0.009969 -5.089528
v 11.584955 0.009969 -5.089528
v 11.584955 0.009969 -5.878630
v 12.771159 0.009969 -5.878630
v 3.702218 5.873377 -16.877045
v 11.584955 5.873377 -16.877045
v 3.702218 5.873377 -5.878630
v 11.584955 5.873377 -5.878630
v 7.160988 0.009969 -12.418275
v 8.126185 1.366568 -12.556419
v 7.160988 0.009969 -10.337399
v 8.126185 0.009969 -10.337399
v 7.160988 3.496387 -10.337399
v 8.126185 3.496387 -10.337399
v 7.160988 1.957255 -12.418275
v 8.126185 1.819110 -12.556419
v 7.160988 0.009969 -13.659353
v 8.126185 1.366568 -13.521209
v 7.160988 1.957255 -13.659353
v 8.126185 1.819110 -13.521209
v 8.126185 0.009969 -12.418275
v 8.126185 1.957255 -12.418275
v 8.126185 0.009969 -13.659353
v 8.126185 1.957255 -13.659353
v 7.739076 1.366568 -12.556419
v 7.739076 1.819110 -12.556419
v 7.739076 1.366568 -13.521209
v 7.739076 1.819110 -13.521209
vt 0.342629 0.246214
vt 0.342629 0.009884
vt 0.364828 0.009884
vt 0.364828 0.246214
vt 0.211509 0.268414
vt 0.195103 0.268414
vt 0.195103 0.246214
vt 0.211509 0.246214
vt 0.337835 0.262592
vt 0.337835 0.468427
vt 0.337835 0.483195
vt 0.321429 0.483195
vt 0.321429 0.246214
vt 0.337835 0.246214
vt 0.195103 0.246214
vt 0.195103 0.009884
vt 0.249294 0.438139
vt 0.249294 0.415939
vt 0.265672 0.415939
vt 0.265672 0.438139
vt 0.455365 0.051989
vt 0.455365 0.031311
vt 0.456796 0.031311
vt 0.456796 0.032599
vt 0.456796 0.050560
vt 0.456796 0.051989
vt 0.360035 0.246214
vt 0.360035 0.356134
vt 0.337835 0.356134
vt 0.337835 0.246214
vt 0.491155 0.246865
vt 0.381234 0.246865
vt 0.381234 0.230487
vt 0.491155 0.230487
vt 0.321429 0.268414
vt 0.321429 0.246214
vt 0.190095 0.347272
vt 0.190095 0.457192
vt 0.173718 0.457192
vt 0.173718 0.347272
vt 0.135112 0.246865
vt 0.151518 0.246865
vt 0.151518 0.269065
vt 0.135112 0.269065
vt 0.172904 0.232097
vt 0.172904 0.246865
vt 0.025378 0.246865
vt 0.025378 0.232097
vt 0.151518 0.416590
vt 0.135112 0.416590
vt 0.480003 0.356598
vt 0.465235 0.356598
vt 0.465235 0.246865
vt 0.480003 0.246865
vt 0.211509 0.415939
vt 0.195103 0.415939
vt 0.172904 0.009884
vt 0.172904 0.026262
vt 0.025378 0.026262
vt 0.025378 0.009884
vt 0.195103 0.026262
vt 0.195103 0.232097
vt 0.280440 0.415939
vt 0.280440 0.438139
vt 0.265672 0.438139
vt 0.265672 0.415939
vt 0.381234 0.024652
vt 0.381234 0.009884
vt 0.490968 0.009884
vt 0.490968 0.024652
vt 0.173718 0.356598
vt 0.151518 0.356598
vt 0.151518 0.246865
vt 0.173718 0.246865
vt 0.025378 0.269065
vt 0.025378 0.246865
vt 0.108173 0.109708
vt 0.090109 0.109708
vt 0.090109 0.148651
vt 0.108173 0.148651
vt 0.089914 0.134925
vt 0.089914 0.184273
vt 0.067024 0.184273
vt 0.067024 0.134925
vt 0.387974 0.188174
vt 0.338626 0.151673
vt 0.338626 0.105493
vt 0.387974 0.105493
vt 0.406994 0.290724
vt 0.357646 0.327224
vt 0.357646 0.244544
vt 0.406994 0.244544
vt 0.917335 0.131893
vt 0.917335 0.191343
vt 0.879445 0.191343
vt 0.879445 0.131893
vt 0.297879 0.336826
vt 0.274989 0.336826
vt 0.274989 0.243955
vt 0.297879 0.243955
vt 0.406994 0.383595
vt 0.357646 0.383595
vt 0.387974 0.244544
vt 0.338626 0.244544
vt 0.061783 0.371784
vt 0.038894 0.371784
vt 0.038894 0.315414
vt 0.061783 0.315414
vt 0.661508 0.467151
vt 0.632041 0.467151
vt 0.632041 0.407702
vt 0.661508 0.407702
vt 0.597155 0.169783
vt 0.567688 0.169783
vt 0.567688 0.131893
vt 0.597155 0.131893
vt 0.876697 0.369052
vt 0.876697 0.398425
vt 0.864879 0.398425
vt 0.864879 0.369052
vt 0.661508 0.407702
vt 0.690975 0.407702
vt 0.690975 0.445487
vt 0.661508 0.445487
vt 0.976978 0.033621
vt 0.976978 0.038101
vt 0.975611 0.039468
vt 0.975611 0.020191
vt 0.986529 0.038101
vt 0.986529 0.033621
vt 0.987897 0.020191
vt 0.987897 0.039468
vt 0.864879 0.310142
vt 0.878695 0.310142
vt 0.878695 0.339597
vt 0.864879 0.339597
vt 0.741783 0.421517
vt 0.741783 0.407701
vt 0.753601 0.407701
vt 0.753601 0.421517
vt 0.876697 0.339597
vt 0.876697 0.369052
vt 0.864879 0.369052
vt 0.876697 0.412241
vt 0.864879 0.412241
vn 0.0000 1.0000 0.0000
vn 0.0000 0.0000 -1.0000
vn -1.0000 0.0000 0.0000
vn 0.0000 -1.0000 0.0000
vn 1.0000 -0.0000 0.0000
vn 0.0000 0.0000 1.0000
usemtl None
s off
f 4/1/1 14/2/1 15/3/1 8/4/1
f 10/5/2 4/6/2 8/7/2 11/8/2
f 27/9/3 29/10/3 18/11/3 19/12/3 6/13/3 2/14/3
f 14/2/1 4/1/1 6/15/1 19/16/1
f 3/17/4 7/18/4 5/19/4 1/20/4
f 8/21/5 15/22/5 16/23/5 22/24/5 12/25/5 11/26/5
f 5/27/6 12/28/6 28/29/6 1/30/6
f 7/31/5 11/32/5 12/33/5 5/34/5
f 3/35/2 10/5/2 11/8/2 7/36/2
f 1/37/3 28/38/3 10/39/3 3/40/3
f 16/41/6 15/42/6 14/43/6 13/44/6
f 30/45/4 13/46/4 18/47/4 29/48/4
f 13/44/6 14/43/6 19/49/6 18/50/6
f 13/51/3 30/52/3 25/53/3 24/54/3
f 4/6/2 10/5/2 2/55/2 6/56/2
f 10/57/4 28/58/4 27/59/4 2/60/4
f 28/58/4 12/61/4 22/62/4 30/45/4
f 25/63/4 26/64/4 23/65/4 24/66/4
f 22/67/5 16/68/5 23/69/5 26/70/5
f 30/71/2 22/72/2 26/73/2 25/74/2
f 16/41/6 13/44/6 24/75/6 23/76/6
f 9/77/4 17/78/4 27/59/4 28/58/4
f 17/78/4 20/79/4 29/48/4 27/59/4
f 21/80/4 9/77/4 28/58/4 30/45/4
f 20/79/4 21/80/4 30/45/4 29/48/4
f 43/81/4 34/82/4 33/83/4 31/84/4
f 35/85/3 37/86/3 31/87/3 33/88/3
f 44/89/5 36/90/5 34/91/5 43/92/5
f 31/93/3 37/94/3 41/95/3 39/96/3
f 17/97/2 9/98/2 44/99/2 37/100/2
f 9/101/5 21/102/5 36/90/5 44/89/5
f 20/103/3 17/104/3 37/86/3 35/85/3
f 21/105/6 20/106/6 35/107/6 36/108/6
f 34/91/6 36/90/6 35/107/6 33/88/6
f 41/109/2 46/110/2 45/111/2 39/112/2
f 43/113/4 31/114/4 39/115/4 45/116/4
f 32/117/1 40/118/1 49/119/1 47/120/1
f 37/121/1 44/122/1 46/123/1 41/124/1
f 32/125/5 38/126/5 44/127/5 43/128/5
f 42/129/5 40/130/5 45/131/5 46/132/5
f 40/130/5 32/125/5 43/128/5 45/131/5
f 38/126/5 42/129/5 46/132/5 44/127/5
f 48/133/5 47/134/5 49/135/5 50/136/5
f 38/137/2 32/138/2 47/139/2 48/140/2
f 42/141/4 38/142/4 48/143/4 50/136/4
f 40/118/6 42/144/6 50/145/6 49/119/6
