# Blender 3.3.1
# www.blender.org
mtllib dumpster.mtl
o Cube.001
v -7.942714 -1.000000 1.000000
v -7.942714 1.587834 1.000000
v -7.942714 -1.000000 -1.000000
v -7.942714 1.000000 -1.000000
v -4.557532 -1.000000 1.000000
v -4.557532 1.587834 1.000000
v -4.557532 -1.000000 -1.000000
v -4.557532 1.000000 -1.000000
vn -1.0000 -0.0000 -0.0000
vn -0.0000 -0.0000 -1.0000
vn 1.0000 -0.0000 -0.0000
vn -0.0000 -0.0000 1.0000
vn -0.0000 -1.0000 -0.0000
vn -0.0000 0.9594 -0.2820
vt 0.230665 0.461239
vt 0.230665 0.759581
vt 0.000092 0.461239
vt 0.230665 0.230665
vt 0.000092 0.691812
vt 0.230665 0.000092
vt 0.230665 0.999908
vt 0.620932 0.461239
vt 0.620932 0.759581
vt 0.851505 0.461239
vt 0.620932 0.230665
vt 0.620932 0.000092
vt 0.851505 0.691812
vt 0.620932 0.999908
s 0
usemtl Material.001
f 1/1/1 2/2/1 4/5/1 3/3/1
f 3/4/2 4/6/2 8/12/2 7/11/2
f 7/10/3 8/13/3 6/9/3 5/8/3
f 5/8/4 6/9/4 2/2/4 1/1/4
f 3/4/5 7/11/5 5/8/5 1/1/5
f 8/14/6 4/7/6 2/2/6 6/9/6
