# Blender v3.2.2 OBJ File: 'gas station.blend'
# www.blender.org
mtllib gas station1.mtl
o Cube
v -1.000000 0.000000 -0.854759
v 0.146647 6.750000 -16.909628
v 1.000000 0.000000 -17.739466
v 0.146647 6.750000 0.146647
v -1.000000 0.000000 -3.313386
v 1.000000 0.000000 1.000000
v 1.000000 0.000000 -0.854759
v -9.641182 6.750000 -16.909628
v -9.617664 6.750000 0.146647
v 1.000000 3.963884 -0.854759
v 1.000000 6.750000 1.000000
v 1.000000 0.000000 -3.313386
v 1.000000 6.750000 -17.762981
v 1.000000 3.963884 -3.313386
v -1.449128 6.000000 -12.200408
v -8.021889 6.000000 -12.200408
v -1.449128 6.000000 -15.313853
v -8.021890 6.000000 -15.313852
v 0.146647 6.000000 0.146647
v -9.617664 6.000000 0.146647
v 0.146647 6.000000 -16.909628
v -9.617665 6.000000 -16.909628
v -1.449128 8.022023 -12.200408
v -8.021889 8.022023 -12.200408
v -1.449128 8.022023 -15.313853
v -8.021890 8.022023 -15.313852
v -10.471018 0.000000 -17.762981
v -10.471018 0.000000 1.000000
v -10.471018 6.750000 1.000000
v -10.471018 6.750000 -17.762981
v -10.471018 0.000000 -0.949401
v 1.000000 6.750000 -0.949401
v -10.471018 6.750000 -0.949401
v 0.146647 6.750000 -1.625433
v -9.620108 6.750000 -1.625432
v 0.146647 6.000000 -1.625433
v -9.617664 6.000000 -1.625433
v -10.471018 6.750000 -3.242162
v -9.622981 6.750000 -3.709641
v -9.617664 6.000000 -3.709641
v -10.471018 0.000000 -3.242162
v 1.000000 6.750000 -3.242162
v 0.146647 6.750000 -3.709641
v 0.146647 6.000000 -3.709641
v 1.000000 3.900974 -17.753057
v 1.000000 3.900974 1.000000
v -10.471018 3.900974 -17.762981
v -10.471018 3.900974 1.000000
v -10.471018 3.900974 -0.949401
v -10.471018 3.900974 -3.242162
v -1.000000 0.000000 -3.237772
v -1.000000 0.000000 -0.947384
v 1.000000 3.900974 -3.313386
v 1.000000 3.900974 -0.854759
v 1.000000 3.963884 -0.948392
v 1.000000 3.963884 -3.239967
vt 0.856402 0.715019
vt 0.856402 0.738630
vt 0.856402 0.738630
vt 0.856402 0.715018
vt 0.519481 0.750000
vt 0.625000 0.750000
vt 0.625000 1.000000
vt 0.519481 1.000000
vt 0.375000 0.750000
vt 0.125000 0.750000
vt 0.125000 0.724026
vt 0.331412 0.724026
vt 0.331412 0.725261
vt 0.375000 0.725256
vt 0.521811 0.724026
vt 0.625000 0.724026
vt 0.519481 0.725274
vt 0.521811 0.725274
vt 0.519480 0.250000
vt 0.625000 0.250000
vt 0.625000 0.500000
vt 0.519481 0.500000
vt 0.643598 0.738630
vt 0.875000 0.750000
vt 0.643598 0.715019
vt 0.856402 0.687248
vt 0.856402 0.511370
vt 0.875000 0.500000
vt 0.875000 0.693477
vt 0.643598 0.511370
vt 0.821624 0.717368
vt 0.678376 0.717368
vt 0.678376 0.717368
vt 0.821624 0.717368
vt 0.643598 0.738630
vt 0.856402 0.511370
vt 0.643598 0.511370
vt 0.643598 0.687248
vt 0.643598 0.687248
vt 0.643598 0.715019
vt 0.821624 0.532632
vt 0.678376 0.532632
vt 0.678376 0.532632
vt 0.821624 0.532632
vt 0.519481 0.056523
vt 0.625000 0.056523
vt 0.519481 0.000000
vt 0.625000 0.000000
vt 0.625000 0.025974
vt 0.519481 0.025974
vt 0.856402 0.687248
vt 0.875000 0.724026
vt 0.625000 0.693477
vt 0.521811 0.693477
vt 0.125000 0.693477
vt 0.331412 0.693477
vt 0.125000 0.500000
vt 0.375000 0.500000
vt 0.375000 0.692456
vt 0.331412 0.692469
vt 0.521811 0.692498
vt 0.519481 0.692498
vt 0.375000 0.025974
vt 0.375000 0.056523
vt 0.375000 0.000000
vt 0.375000 0.250000
vt 0.375000 1.000000
vn 1.0000 0.0016 -0.0007
vn 0.0000 0.0000 1.0000
vn 0.0000 -1.0000 0.0000
vn 1.0000 0.0000 0.0000
vn 0.0004 -0.0017 -1.0000
vn 0.0000 1.0000 0.0000
vn 0.0000 0.0000 -1.0000
vn -1.0000 0.0000 -0.0000
vn 1.0000 0.0052 -0.0007
vn 0.9998 0.0192 -0.0007
vn 0.0015 -0.0017 -1.0000
usemtl Material
s off
f 35/1/1 9/2/1 20/3/1 37/4/1
f 46/5/2 11/6/2 29/7/2 48/8/2
f 6/9/3 28/10/3 31/11/3 52/12/3 1/13/3 7/14/3
f 55/15/4 32/16/4 11/6/4 46/5/4 54/17/4 10/18/4
f 47/19/5 30/20/5 13/21/5 45/22/5
f 4/23/6 9/2/6 29/24/6 11/6/6
f 34/25/6 4/23/6 11/6/6 32/16/6
f 39/26/6 8/27/6 30/28/6 38/29/6
f 8/27/6 2/30/6 13/21/6 30/28/6
f 16/31/2 15/32/2 23/33/2 24/34/2
f 9/2/7 4/23/7 19/35/7 20/3/7
f 2/30/2 8/27/2 22/36/2 21/37/2
f 43/38/8 2/30/8 21/37/8 44/39/8
f 36/40/6 37/4/6 20/3/6 19/35/6
f 18/41/6 17/42/6 21/37/6 22/36/6
f 25/43/6 26/44/6 24/34/6 23/33/6
f 17/42/7 18/41/7 26/44/7 25/43/7
f 15/32/4 17/42/4 25/43/4 23/33/4
f 18/41/8 16/31/8 24/34/8 26/44/8
f 50/45/8 38/46/8 30/20/8 47/19/8
f 48/47/8 29/48/8 33/49/8 49/50/8
f 44/39/6 40/51/6 37/4/6 36/40/6
f 4/23/8 34/25/8 36/40/8 19/35/8
f 9/2/6 35/1/6 33/52/6 29/24/6
f 43/38/6 34/25/6 32/16/6 42/53/6
f 56/54/4 42/53/4 32/16/4 55/15/4
f 52/12/3 31/11/3 41/55/3 51/56/3
f 39/26/9 35/1/9 37/4/9 40/51/9
f 8/27/10 39/26/10 40/51/10 22/36/10
f 41/55/3 27/57/3 3/58/3 12/59/3 5/60/3 51/56/3
f 52/12/3 51/56/3 5/60/3 12/59/3 7/14/3 1/13/3
f 14/61/4 53/62/4 45/22/4 13/21/4 42/53/4 56/54/4
f 2/30/6 43/38/6 42/53/6 13/21/6
f 44/39/6 21/37/6 17/42/6 15/32/6 16/31/6 18/41/6 22/36/6 40/51/6
f 49/50/8 33/49/8 38/46/8 50/45/8
f 34/25/8 43/38/8 44/39/8 36/40/8
f 35/1/6 39/26/6 38/29/6 33/52/6
f 31/63/8 49/50/8 50/45/8 41/64/8
f 3/58/4 45/22/4 53/62/4 12/59/4
f 28/65/8 48/47/8 49/50/8 31/63/8
f 41/64/8 50/45/8 47/19/8 27/66/8
f 27/66/11 47/19/11 45/22/11 3/58/11
f 54/17/4 46/5/4 6/9/4 7/14/4
f 6/9/2 46/5/2 48/8/2 28/67/2
o Cube.001
v 11.584955 0.000000 -16.877045
v 3.702218 5.873377 -17.752161
v 11.584955 0.000000 -17.752161
v 11.584955 6.750000 -17.752161
v 12.771159 0.000000 -16.877045
v 3.702218 6.750000 -17.752161
v 12.771159 0.000000 -17.752161
v 12.771159 6.750000 -17.752161
v 8.126185 5.873377 -12.418275
v 11.584955 5.873377 -17.752161
v 12.771159 5.873377 -17.752161
v 12.771159 5.873377 -16.877045
v 11.584955 5.873377 -5.089528
v 11.584955 6.750000 -5.089528
v 12.771159 6.750000 -5.089528
v 12.771159 5.873377 -5.089528
v 7.160988 5.873377 -12.418275
v 3.702218 5.873377 -5.089528
v 3.702218 6.750000 -5.089528
v 7.160988 5.873377 -10.337399
v 8.126185 5.873377 -10.337399
v 12.771159 5.873377 -5.878630
v 12.771159 0.009969 -5.089528
v 11.584955 0.009969 -5.089528
v 11.584955 0.009969 -5.878630
v 12.771159 0.009969 -5.878630
v 3.702218 5.873377 -16.877045
v 11.584955 5.873377 -16.877045
v 3.702218 5.873377 -5.878630
v 11.584955 5.873377 -5.878630
v 7.160988 0.009969 -12.418275
v 8.126185 1.366568 -12.556419
v 7.160988 0.009969 -10.337399
v 8.126185 0.009969 -10.337399
v 7.160988 3.496387 -10.337399
v 8.126185 3.496387 -10.337399
v 7.160988 1.957255 -12.418275
v 8.126185 1.819110 -12.556419
v 8.126185 0.009969 -8.294291
v 7.160988 0.009969 -8.294291
v 7.160988 2.998377 -8.294291
v 8.126185 2.998377 -8.294291
v 7.160988 0.009969 -9.315845
v 7.160988 3.496387 -9.315845
v 8.126185 3.496387 -9.315845
v 8.126185 0.009969 -9.315845
v 7.160988 0.009969 -13.659353
v 8.126185 1.366568 -13.521209
v 7.160988 1.957255 -13.659353
v 8.126185 1.819110 -13.521209
v 8.126185 0.009969 -12.418275
v 8.126185 1.957255 -12.418275
v 8.126185 0.009969 -13.659353
v 8.126185 1.957255 -13.659353
v 7.739076 1.366568 -12.556419
v 7.739076 1.819110 -12.556419
v 7.739076 1.366568 -13.521209
v 7.739076 1.819110 -13.521209
vt 0.875000 0.500000
vt 0.875000 0.750000
vt 0.625000 0.750000
vt 0.625000 0.500000
vt 0.592533 0.250000
vt 0.625000 0.250000
vt 0.592533 0.500000
vt 0.592533 0.000000
vt 0.592533 0.000000
vt 0.592533 0.000000
vt 0.625000 0.000000
vt 0.625000 0.250000
vt 0.592533 0.250000
vt 0.875000 0.500000
vt 0.875000 0.750000
vt 0.125000 0.500000
vt 0.375000 0.500000
vt 0.375000 0.750000
vt 0.125000 0.750000
vt 0.592533 0.750000
vt 0.592533 0.750000
vt 0.592533 0.750000
vt 0.592532 1.000000
vt 0.375000 1.000000
vt 0.375000 0.250000
vt 0.375000 0.000000
vt 0.592533 0.000000
vt 0.625000 1.000000
vt 0.592532 1.000000
vt 0.592532 1.000000
vt 0.592532 1.000000
vt 0.592532 1.000000
vt 0.625000 1.000000
vt 0.592532 1.000000
vt 0.592532 1.000000
vt 0.592533 1.000000
vt 0.592533 1.000000
vt 0.592533 1.000000
vt 0.592533 1.000000
vt 0.592533 0.750000
vt 0.592533 0.750000
vt 0.592532 1.000000
vt 0.592533 1.000000
vt 0.592532 1.000000
vt 0.592533 1.000000
vt 0.592532 1.000000
vt 0.592532 1.000000
vt 0.592532 1.000000
vt 0.592533 1.000000
vt 0.592533 1.000000
vt 0.592533 1.000000
vt 0.592533 1.000000
vt 0.592532 1.000000
vt 0.592532 1.000000
vt 0.592533 1.000000
vt 0.592533 1.000000
vt 0.592532 1.000000
vt 0.592532 1.000000
vt 0.592532 1.000000
vt 0.592532 1.000000
vt 0.592532 1.000000
vt 0.592532 1.000000
vt 0.592533 1.000000
vt 0.592532 1.000000
vt 0.592532 1.000000
vt 0.592533 1.000000
vt 0.592532 1.000000
vt 0.592532 1.000000
vt 0.592532 1.000000
vt 0.592532 1.000000
vn 0.0000 1.0000 0.0000
vn 0.0000 0.0000 -1.0000
vn -1.0000 0.0000 0.0000
vn 0.0000 -1.0000 0.0000
vn 1.0000 -0.0000 0.0000
vn 0.0000 0.0000 1.0000
vn 0.0000 0.8989 0.4382
usemtl None
s off
f 60/68/12 70/69/12 71/70/12 64/71/12
f 66/72/13 60/73/13 64/71/13 67/74/13
f 83/75/14 85/76/14 74/77/14 75/78/14 62/79/14 58/80/14
f 70/69/12 60/68/12 62/81/12 75/82/12
f 59/83/15 63/84/15 61/85/15 57/86/15
f 64/71/16 71/70/16 72/87/16 78/88/16 68/89/16 67/74/16
f 61/85/17 68/89/17 84/90/17 57/91/17
f 63/84/16 67/74/16 68/89/16 61/85/16
f 59/92/13 66/72/13 67/74/13 63/84/13
f 57/93/14 84/94/14 66/72/14 59/92/14
f 72/87/17 71/70/17 70/95/17 69/96/17
f 86/97/15 69/96/15 74/98/15 85/99/15
f 69/96/17 70/95/17 75/100/17 74/98/17
f 69/96/14 86/97/14 81/101/14 80/102/14
f 60/73/13 66/72/13 58/80/13 62/79/13
f 66/72/15 84/94/15 83/75/15 58/80/15
f 84/90/15 68/89/15 78/88/15 86/97/15
f 100/103/14 99/104/14 96/105/14 97/106/14
f 81/101/15 82/107/15 79/108/15 80/102/15
f 78/88/16 72/87/16 79/108/16 82/107/16
f 86/97/13 78/88/13 82/107/13 81/101/13
f 72/87/17 69/96/17 80/102/17 79/108/17
f 65/109/15 73/110/15 83/111/15 84/90/15
f 73/110/15 76/112/15 85/99/15 83/111/15
f 77/113/15 65/109/15 84/90/15 86/97/15
f 76/112/15 77/113/15 86/97/15 85/99/15
f 107/114/15 90/115/15 89/116/15 87/117/15
f 91/118/14 93/119/14 87/117/14 89/116/14
f 108/120/16 92/121/16 90/115/16 107/114/16
f 87/117/14 93/119/14 105/122/14 103/123/14
f 73/110/13 65/109/13 108/120/13 93/119/13
f 65/109/16 77/113/16 92/121/16 108/120/16
f 76/112/14 73/110/14 93/119/14 91/118/14
f 77/113/17 76/112/17 91/118/17 92/121/17
f 98/124/17 97/106/17 96/105/17 95/125/17
f 101/126/18 100/103/18 97/106/18 98/124/18
f 102/127/16 101/126/16 98/124/16 95/125/16
f 99/104/15 102/127/15 95/125/15 96/105/15
f 89/116/15 90/115/15 102/127/15 99/104/15
f 90/115/16 92/121/16 101/126/16 102/127/16
f 92/121/12 91/118/12 100/103/12 101/126/12
f 91/118/14 89/116/14 99/104/14 100/103/14
f 105/122/13 110/128/13 109/129/13 103/123/13
f 107/114/15 87/117/15 103/123/15 109/129/15
f 88/130/12 104/131/12 113/132/12 111/133/12
f 93/119/12 108/120/12 110/128/12 105/122/12
f 88/130/16 94/134/16 108/120/16 107/114/16
f 106/135/16 104/131/16 109/129/16 110/128/16
f 104/131/16 88/130/16 107/114/16 109/129/16
f 94/134/16 106/135/16 110/128/16 108/120/16
f 112/136/16 111/133/16 113/132/16 114/137/16
f 94/134/13 88/130/13 111/133/13 112/136/13
f 106/135/15 94/134/15 112/136/15 114/137/15
f 104/131/17 106/135/17 114/137/17 113/132/17
o Plane
v -10.297933 0.000000 1.000000
v -1.000000 0.000000 -0.854759
v 1.000000 0.000000 1.000000
v -10.297933 0.000000 -17.402487
v -1.000000 0.000000 -3.313386
v 1.000000 0.000000 -17.402487
v 1.000000 0.000000 -0.854759
v -10.297933 5.889624 -17.402487
v -10.297933 5.889624 1.000000
v 1.000000 3.963884 -0.854759
v 1.000000 0.000000 -3.313386
v 1.000000 5.889624 1.000000
v 1.000000 5.889624 -17.402487
v 1.000000 3.963884 -3.313386
vt 1.000000 0.000000
vt 1.000000 0.100788
vt 0.822976 0.100788
vt 0.822976 0.234391
vt 1.000000 0.234392
vt 1.000000 1.000000
vt 0.000000 1.000000
vt 0.000000 0.000000
vt 0.000000 0.000000
vt 0.000000 1.000000
vt 1.000000 1.000000
vt 1.000000 0.000000
vt 1.000000 0.234392
vt 1.000000 0.100788
vn 0.0000 1.0000 0.0000
vn 0.0000 -1.0000 0.0000
vn 0.0000 0.0000 1.0000
vn 0.0000 0.0000 -1.0000
vn -1.0000 0.0000 0.0000
vn 1.0000 0.0000 0.0000
usemtl (null)
s off
f 117/138/19 121/139/19 116/140/19 119/141/19 125/142/19 120/143/19 118/144/19 115/145/19
f 123/146/20 122/147/20 127/148/20 126/149/20
f 120/143/21 127/148/21 122/147/21 118/144/21
f 115/145/22 123/146/22 126/149/22 117/138/22
f 125/142/23 128/150/23 124/151/23 121/139/23 117/138/23 126/149/23 127/148/23 120/143/23
f 118/144/24 122/147/24 123/146/24 115/145/24
f 119/141/19 116/140/19 121/139/19 125/142/19
